<svg width="174" height="200" viewBox="0 0 174 200" fill="none" xmlns="http://www.w3.org/2000/svg">
<path d="M93.9956 95L9 80V190.838C9.00101 192.043 9.23875 193.235 9.69967 194.347C10.1606 195.459 10.8356 196.469 11.6863 197.32C12.5369 198.171 13.5465 198.845 14.6574 199.305C15.7683 199.765 16.9587 200.001 18.1607 200H164.824C166.027 200.003 167.219 199.768 168.332 199.309C169.445 198.85 170.456 198.176 171.308 197.325C172.161 196.474 172.837 195.463 173.299 194.35C173.761 193.237 173.999 192.044 174 190.838V150L93.9956 95Z" fill="#185C37"/>
<path d="M93.9956 3.22964e-06H18.1607C16.9587 -0.00100736 15.7683 0.235161 14.6574 0.695025C13.5465 1.15489 12.5369 1.82944 11.6863 2.68017C10.8356 3.5309 10.1606 4.54114 9.69967 5.65321C9.23875 6.76529 9.00101 7.95742 9 9.16154V50L93.9956 100L139 115L174 100V50L93.9956 3.22964e-06Z" fill="#21A366"/>
<path d="M9 50H94V100H9V50Z" fill="#107C41"/>
<path opacity="0.1" d="M105.832 45H45V170H105.832C108.255 169.988 110.577 169.02 112.293 167.305C114.009 165.59 114.982 163.267 115 160.838V54.1615C114.982 51.7334 114.009 49.4102 112.293 47.6953C110.577 45.9805 108.255 45.0121 105.832 45Z" fill="black"/>
<path opacity="0.2" d="M97.8317 45H42V160H97.8317C100.256 159.988 102.577 159.02 104.293 157.305C106.009 155.59 106.982 153.267 107 150.838V54.1615C106.982 51.7334 106.009 49.4102 104.293 47.6953C102.577 45.9805 100.256 45.0121 97.8317 45Z" fill="black"/>
<path opacity="0.2" d="M95.8318 45H45V160H95.8318C98.2557 159.988 100.577 159.02 102.293 157.305C104.009 155.59 104.982 153.267 105 150.838V54.1615C104.982 51.7334 104.009 49.4102 102.293 47.6953C100.577 45.9805 98.2557 45.0121 95.8318 45Z" fill="black"/>
<path d="M164.832 1.29131e-05H94V50H174V9.16155C173.999 7.95678 173.761 6.76402 173.3 5.65144C172.838 4.53887 172.163 3.52828 171.311 2.67745C170.46 1.82663 169.449 1.15223 168.338 0.692824C167.226 0.233414 166.035 -0.00200893 164.832 1.29131e-05Z" fill="#33C481"/>
<path d="M110 100H174V150H110V100Z" fill="#107C41"/>
<path opacity="0.2" d="M107.832 45H52V170H107.832C110.256 169.988 112.577 169.02 114.293 167.305C116.009 165.59 116.982 163.267 117 160.838V54.1615C116.982 51.7334 116.009 49.4102 114.293 47.6953C112.577 45.9805 110.256 45.0121 107.832 45Z" fill="black"/>
<path d="M9.16795 45H100.832C103.26 44.998 105.59 45.9618 107.309 47.6797C109.028 49.3976 109.996 51.729 110 54.1615V145.838C109.996 148.271 109.028 150.602 107.309 152.32C105.59 154.038 103.26 155.002 100.832 155H9.16795C7.96537 155.002 6.77418 154.767 5.66246 154.307C4.55074 153.848 3.5403 153.173 2.68887 152.323C1.83745 151.472 1.16174 150.461 0.70037 149.349C0.238998 148.236 0.00100718 147.043 0 145.838V54.1615C0.00100718 52.9568 0.238998 51.764 0.70037 50.6514C1.16174 49.5389 1.83745 48.5283 2.68887 47.6775C3.5403 46.8266 4.55074 46.1522 5.66246 45.6928C6.77418 45.2334 7.96537 44.998 9.16795 45Z" fill="url(#paint0_linear_2814_967)"/>
<path d="M28 129.977L47.5662 100.405L29.6442 71H44.0364L53.8156 89.8291C54.7195 91.6108 55.374 92.9356 55.6701 93.8188H55.8026C56.4416 92.3874 57.1195 91.0093 57.8286 89.6616L68.2857 71.0305H81.5325L63.1507 100.268L82 130H67.9039L56.6052 109.359C56.0806 108.471 55.6348 107.542 55.2727 106.58H55.0857C54.7562 107.517 54.317 108.414 53.7766 109.252L42.1429 129.977H28Z" fill="white"/>
<defs>
<linearGradient id="paint0_linear_2814_967" x1="19.1498" y1="37.8" x2="91.0457" y2="162.087" gradientUnits="userSpaceOnUse">
<stop stop-color="#18884F"/>
<stop offset="0.5" stop-color="#117E43"/>
<stop offset="1" stop-color="#0B6631"/>
</linearGradient>
</defs>
</svg>
