<svg width="167" height="209" viewBox="0 0 167 209" fill="none" xmlns="http://www.w3.org/2000/svg">
<path d="M104.25 0.75H21.25C15.7468 0.75 10.4689 2.93615 6.57753 6.82753C2.68615 10.7189 0.5 15.9968 0.5 21.5V187.5C0.5 193.003 2.68615 198.281 6.57753 202.172C10.4689 206.064 15.7468 208.25 21.25 208.25H145.75C151.253 208.25 156.531 206.064 160.422 202.172C164.314 198.281 166.5 193.003 166.5 187.5V63L104.25 0.75ZM57.5418 147.971C54.3359 150.98 49.6049 152.329 44.0957 152.329C43.0275 152.34 41.9598 152.278 40.9003 152.142V166.937H31.625V126.101C35.8108 125.476 40.0404 125.192 44.2721 125.25C50.051 125.25 54.1595 126.35 56.9296 128.56C59.5649 130.655 61.3494 134.089 61.3494 138.136C61.339 142.203 59.9903 145.637 57.5418 147.971ZM97.0394 162.029C92.6819 165.65 86.0523 167.372 77.9494 167.372C73.0939 167.372 69.6597 167.061 67.3254 166.75V126.111C71.5127 125.5 75.7409 125.212 79.9725 125.25C87.8264 125.25 92.9309 126.661 96.9149 129.67C101.221 132.865 103.918 137.959 103.918 145.274C103.918 153.19 101.023 158.658 97.0394 162.029ZM135.375 133.239H119.481V142.69H134.337V150.306H119.481V166.947H110.081V125.561H135.375V133.239ZM104.25 73.375H93.875V21.5L145.75 73.375H104.25Z" fill="#7C3AED"/>
</svg>
